<svg width="307" height="221" viewBox="0 0 307 221" fill="none" xmlns="http://www.w3.org/2000/svg">
<path d="M53.1192 154.564C51.5926 167.362 39.2781 33.3451 47.0636 19.9755C54.8491 6.60594 268.725 22.044 272.85 19.9755C276.976 17.907 282.829 142.606 278.041 160.803C273.253 179.001 125.07 172.344 41.8731 166.151C29.0875 169.57 34.9526 9.27974 41.8731 11.0624" stroke="#067D7D" stroke-width="3"/>
<path d="M41.8727 10.1709C125.399 -3.88743 274.143 2.96675 279.771 10.1709C285.398 17.3751 294.947 104.575 286.691 168.825C270.286 169.487 263.78 170.194 266.794 173.282L272.85 190.217C185.347 192.298 136.149 193.181 46.1981 190.217C44.5949 183.429 45.7409 180.277 57.4442 177.738C149.981 171.536 199.155 173.638 286.691 177.738C293.448 190.965 303.993 211.608 303.993 211.608C280.922 220.001 126.651 211.608 109.349 211.608C92.0475 211.608 114.54 200.912 114.54 200.912H195.858C205.085 209.062 205.085 212.966 195.858 218.739C80.9902 220.883 7.04891 214.745 5.53915 211.608C4.0294 208.472 -11.3697 195.543 34.952 168.825" stroke="#067D7D" stroke-width="3"/>
<path d="M111.828 128.737C120.033 131.543 130.025 138.584 128.716 136.283C127.408 133.981 170.694 72.9162 187.074 67.1167C194.697 68.697 201.957 66.0887 208.937 58.3138C215.918 50.5388 208.756 37.1921 208.937 39.8696M111.828 128.737C103.622 125.932 98.6235 141.211 100.941 143.409C104.023 149.017 107.696 152.212 119.118 148.277C133.24 137.959 110.304 125.586 111.828 128.737ZM173.471 32.3242C165.449 39.8696 166.716 56.4285 167.56 58.3138C168.405 60.1991 135.227 99.6317 111.826 120.353C99.053 123.02 91.9358 138.078 93.1296 141.313C95.1078 146.511 96.4517 149.13 100.941 151.164C111.585 156.711 114.06 155.292 119.118 153.679C127.29 148.555 125.899 145.982 125.007 141.313" stroke="#067D7D" stroke-width="3"/>
<path d="M173.773 32.5337C180.286 27.8325 184.113 27.1464 191.084 29.1802C182.3 38.945 181.05 43.9339 186.44 51.8163C194.685 56.8424 199.509 54.9654 208.606 39.8694" stroke="#067D7D" stroke-width="3"/>
</svg>
