<svg width="139" height="198" viewBox="0 0 139 198" fill="none" xmlns="http://www.w3.org/2000/svg">
<path fill-rule="evenodd" clip-rule="evenodd" d="M44.0422 146.618C3.15722 99.8632 -5.69131 63.905 3.08187 39.027C11.895 14.0358 38.1071 1.22014 64.7672 0.0833676C91.4289 -1.05348 119.38 9.42925 132.067 31.9859C144.788 54.6026 141.719 88.5163 108.363 133.284C108.513 136.753 108.147 139.573 107.256 141.814C105.957 145.078 103.583 146.996 100.547 147.821C97.6714 148.603 94.3206 148.374 90.918 147.756C88.4812 147.314 85.8875 146.645 83.2492 145.899L84.1303 149.095L80.2274 150.188L78.6768 144.564C71.4684 142.429 64.4198 140.357 58.6373 140.571C57.312 140.62 56.0939 140.789 54.9829 141.093C54.4851 142.056 53.9616 142.964 53.4112 143.808C52.0318 145.922 50.4148 147.738 48.5152 148.984C68.1434 151.073 78.6732 150.782 84.4498 150.533C84.8394 150.516 85.2129 150.499 85.5697 150.483C86.5986 150.436 87.4893 150.395 88.2321 150.382C89.213 150.364 90.1415 150.385 90.9418 150.562C91.8302 150.759 92.631 151.164 93.2368 151.92C93.6186 152.397 93.8617 152.942 94.0372 153.474C94.2693 153.669 94.4835 153.873 94.671 154.088C94.9862 154.448 95.3211 154.946 95.4417 155.575C95.5769 156.281 95.4093 156.988 94.9795 157.576C94.5963 158.1 94.0842 158.425 93.6689 158.629C92.8529 159.03 91.8126 159.251 90.7831 159.393C89.7056 159.542 88.4344 159.63 87.0391 159.676C81.749 159.853 74.0333 159.442 66.6896 159.052L65.6326 158.995C59.0338 158.645 52.9214 158.341 48.9876 158.462C49.2055 158.553 49.4354 158.648 49.678 158.745C61.6207 163.553 70.417 164.075 78.1982 164.27C78.8236 164.286 79.4451 164.299 80.0636 164.313C87.146 164.465 93.8215 164.609 101.191 168.103C102.211 168.586 103.075 169.087 103.749 169.616C104.4 170.126 105.025 170.779 105.327 171.609C105.671 172.553 105.524 173.535 104.953 174.363C104.451 175.09 103.707 175.581 103.017 175.923C101.627 176.613 99.6701 177.08 97.4532 177.395C95.1889 177.716 92.4761 177.901 89.4639 177.942C79.5919 178.077 66.0874 176.666 53.8745 173.061L53.9505 173.139C57.2685 176.527 61.8251 180.869 66.8175 184.735C68.0103 185.659 69.2197 186.549 70.4356 187.388C73.0417 186.994 75.7416 186.623 78.376 186.322C84.2423 185.651 90.0511 185.29 93.7418 185.9C94.684 186.055 95.5936 186.289 96.3681 186.655C97.1341 187.017 97.9404 187.592 98.381 188.516C98.8478 189.494 98.7461 190.526 98.3637 191.437C97.9996 192.304 97.3576 193.136 96.5698 193.935C92.121 198.447 86.3287 198.731 80.7151 197.064C76.9422 195.943 73.0682 193.903 69.3586 191.462C66.7134 191.878 64.1984 192.31 61.9949 192.707C59.6275 193.133 57.6262 193.518 56.2177 193.796C55.5136 193.935 54.9579 194.047 54.5791 194.124C54.3897 194.163 54.2445 194.193 54.1472 194.213L54.0374 194.236L54.0102 194.241L54.0037 194.243L54.0023 194.243C54.0023 194.243 54.002 194.243 53.6267 192.35C53.2514 190.458 53.2523 190.457 53.2523 190.457L53.2922 190.449L53.4076 190.425C53.5088 190.404 53.6579 190.373 53.8514 190.334C54.2383 190.255 54.8029 190.141 55.5166 190C56.9437 189.719 58.9684 189.33 61.3626 188.898C62.4641 188.7 63.6452 188.492 64.8835 188.282C64.6646 188.115 64.4467 187.948 64.23 187.78C59.0499 183.769 54.3595 179.295 50.9735 175.837C49.2777 174.106 47.9026 172.622 46.9497 171.569C46.4731 171.043 46.1018 170.623 45.8484 170.334C45.7217 170.19 45.6244 170.078 45.5582 170.001L45.4823 169.913L45.4622 169.89L45.4567 169.883L45.455 169.882C45.455 169.882 45.4542 169.881 47.0297 168.626L45.4542 169.881L47.8524 166.835C61.1254 172.155 77.9246 174.225 89.5237 174.067C92.4112 174.027 94.9377 173.85 96.9776 173.561C98.9027 173.288 100.254 172.933 101.056 172.58C100.685 172.303 100.124 171.968 99.3213 171.588C92.7616 168.478 86.9258 168.347 79.7518 168.186C79.169 168.173 78.5774 168.16 77.9759 168.145C69.9631 167.944 60.6104 167.392 48.0271 162.327C46.4581 161.695 45.2258 161.122 44.3342 160.594C43.8895 160.331 43.4761 160.048 43.1358 159.739C42.8224 159.455 42.4125 159.009 42.2239 158.388C41.9934 157.63 42.1609 156.827 42.6857 156.196C43.114 155.681 43.6716 155.409 44.0497 155.261C44.8269 154.956 45.825 154.803 46.8196 154.712C50.8577 154.34 58.3568 154.722 65.9716 155.126L66.9111 155.175C74.3581 155.571 81.9146 155.973 87.0162 155.803C88.3361 155.759 89.447 155.678 90.3227 155.557L90.4083 155.545L90.304 155.145C90.1717 154.639 90.0743 154.439 90.0318 154.368C90.0098 154.361 89.9755 154.351 89.9258 154.34C89.6415 154.277 89.1419 154.24 88.1919 154.257C87.5107 154.269 86.7038 154.306 85.6995 154.352L85.6919 154.352C85.3266 154.369 84.9352 154.386 84.5143 154.404C78.2234 154.676 66.6277 154.98 44.6386 152.47L42.5033 152.226L42.9624 150.188C43.2524 148.901 43.6128 147.712 44.0422 146.618ZM46.0696 142.818C6.41265 97.0088 -1.10515 62.8746 6.90018 40.174C14.9667 17.2998 39.1752 5.04924 64.8292 3.95537C90.4816 2.86156 116.738 12.9837 128.504 33.9039C140.01 54.3609 138.089 85.9553 106.539 129.145L103.952 129.546C104.685 134.842 104.371 138.313 103.492 140.523C102.672 142.583 101.345 143.608 99.5539 144.094C97.603 144.624 95.0004 144.532 91.7782 143.947C88.8028 143.407 85.5143 142.49 82.027 141.466L81.3517 139.016L81.126 138.726C77.1 133.553 74.2396 129.755 72.6668 126.371C71.1536 123.116 70.8958 120.374 72.0242 117.24L72.0867 117.067L72.1147 116.886C74.4082 102.137 76.5544 90.7768 78.5396 82.5619C79.8816 83.2462 81.2541 83.8412 82.5681 84.2362C83.8166 84.6115 85.1547 84.8512 86.4379 84.7269C87.7796 84.5969 89.1104 84.0562 90.0817 82.8706C91.0052 81.7433 91.4054 80.2715 91.4719 78.6289C91.5389 76.9737 91.2757 74.9604 90.6787 72.5502C90.0916 70.1796 89.4585 68.2133 88.7629 66.7159C88.1124 65.3154 87.2413 63.9463 85.952 63.2884C85.2244 62.9172 84.3793 62.7826 83.5032 62.9906C82.6773 63.1867 82.0025 63.6442 81.4715 64.145C80.4432 65.1147 79.5625 66.6202 78.7599 68.4223C77.8629 70.4364 76.9425 73.112 75.9976 76.4621C74.4343 75.4349 73.0683 74.446 72.1217 73.7523C69.1451 70.285 68.0834 67.8231 67.8938 66.1681C67.8556 65.8347 67.8519 65.5279 67.8779 65.2445C69.4068 64.3028 70.898 63.372 72.1452 62.5887C73.1149 61.9798 73.9386 61.4591 74.5202 61.0905C74.811 60.9062 75.0413 60.7599 75.1991 60.6595L75.4387 60.507L75.4418 60.505C75.4418 60.505 75.4429 60.5043 74.3608 58.8995L75.4429 60.5043L74.2169 56.9714L74.3608 58.8995C74.2169 56.9714 74.2147 56.9716 74.2147 56.9716L74.2059 56.9725L74.1889 56.9742L74.1372 56.9798C74.0951 56.9846 74.0378 56.9914 73.9667 57.0006C73.8247 57.019 73.627 57.0472 73.3851 57.0883C72.9032 57.1702 72.2357 57.3049 71.4783 57.5187C70.0054 57.9344 67.9974 58.7026 66.3989 60.1244C65.5682 60.8632 64.8662 61.7657 64.4064 62.8359C64.0216 63.0708 63.6386 63.3036 63.2608 63.5322C62.0354 64.2733 60.8875 64.9548 59.9162 65.5125C59.7462 65.4757 59.5646 65.4541 59.3716 65.4526C58.5339 65.4458 57.8767 65.8195 57.445 66.1835C57.0526 66.5143 56.7216 66.8106 56.4766 67.0635C56.3595 67.1843 56.2102 67.3479 56.0793 67.5362C56.0143 67.6297 55.9169 67.7815 55.8354 67.9764C55.7651 68.1444 55.6249 68.5336 55.6958 69.0254C55.7839 69.6357 56.162 70.1546 56.7098 70.4419C57.1511 70.6734 57.5667 70.6847 57.7489 70.6813C58.1217 70.6743 58.4344 70.575 58.5573 70.5348C58.662 70.5006 58.7703 70.4601 58.8798 70.4156C59.2894 71.9393 59.6366 74.3088 59.87 77.3751C60.3802 84.0758 60.3142 93.6105 59.4685 103.533C58.6221 113.465 57.0036 123.676 54.4524 131.763C53.7273 134.061 52.9352 136.161 52.0779 138.019C50.9199 138.501 49.8195 139.131 48.7983 139.937C47.7754 140.744 46.8648 141.702 46.0696 142.818ZM56.8966 136.822C57.459 136.76 58.0271 136.719 58.5991 136.698C64.255 136.489 70.7988 138.175 76.9955 139.98C73.4503 135.405 70.6253 131.589 68.9739 128.036C67.1555 124.124 66.701 120.413 68.1513 116.248C70.5398 100.906 72.7951 89.037 74.9285 80.4988C72.6359 79.0653 70.6215 77.5972 69.439 76.7291L69.2668 76.6027L69.1281 76.4428C66.1811 73.0464 64.56 70.1299 64.026 67.584C63.5086 67.8927 63.0048 68.1902 62.5248 68.4697C62.5582 68.5679 62.5898 68.6654 62.6198 68.7614C63.2147 70.6637 63.6328 73.5415 63.8947 76.9811C64.423 83.9201 64.3493 93.6594 63.4904 103.738C62.6322 113.807 60.9813 124.325 58.3116 132.788C57.8712 134.184 57.4002 135.533 56.8966 136.822ZM83.8745 80.5342C82.5498 80.136 81.0575 79.4449 79.5458 78.6148C80.5645 74.8432 81.5376 71.9364 82.4631 69.8582C83.1787 68.2515 83.7774 67.3524 84.1984 66.9276C84.2356 66.9698 84.2771 67.0199 84.3227 67.0794C84.5399 67.3627 84.7932 67.7847 85.0697 68.3799C85.624 69.5733 86.1903 71.2846 86.7514 73.5501C87.3027 75.7759 87.4871 77.4159 87.4396 78.5908C87.3915 79.7783 87.1149 80.3133 86.9381 80.5291C86.809 80.6867 86.6159 80.8254 86.1486 80.8707C85.6228 80.9217 84.8667 80.8325 83.8745 80.5342ZM82.0089 193.358C79.9199 192.737 77.7432 191.773 75.5402 190.565C76.6109 190.423 77.6804 190.291 78.7379 190.17C84.6397 189.495 89.9022 189.217 92.9468 189.72C93.6884 189.842 94.1917 189.996 94.5021 190.142C94.5304 190.156 94.5558 190.168 94.5786 190.18C94.4584 190.411 94.198 190.786 93.678 191.313C90.7227 194.311 86.8012 194.782 82.0089 193.358ZM45.9167 156.851C45.9167 156.851 45.9219 156.856 45.93 156.865C45.9203 156.856 45.9167 156.851 45.9167 156.851ZM45.4615 158.852C45.4646 158.851 45.4689 158.849 45.4743 158.846C45.4679 158.848 45.4632 158.851 45.4601 158.852C45.4568 158.854 45.4555 158.854 45.4555 158.854C45.4555 158.854 45.4578 158.854 45.4615 158.852Z" fill="#067D7D"/>
</svg>
