<svg width="256" height="256" viewBox="0 0 256 256" fill="none" xmlns="http://www.w3.org/2000/svg">
<g clip-path="url(#clip0_43_35)">
<path d="M220.014 143.19V143.336H256V188.44H203.288C199.144 188.44 192.829 186.71 189.294 184.6L176.64 177.164C173.105 175.055 167.229 175.055 163.694 177.164L147.274 186.782C143.738 188.806 143.738 192.268 147.274 194.365L181.76 214.589C185.295 216.698 191.634 218.417 195.767 218.417H256V248.478C256 252.623 252.611 256 248.466 256H7.534C5.53891 255.997 3.62626 255.204 2.21439 253.794C0.802519 252.384 0.00634288 250.473 0 248.478L0 218.417H60.245C65.1392 218.214 69.924 216.906 74.24 214.589L189.294 147.017C192.829 144.92 199.156 143.189 203.288 143.189H220.014V143.19ZM220.014 69.425H256V114.956H195.755C190.857 115.166 186.071 116.487 181.76 118.821L66.706 187.05C62.3949 189.383 57.6094 190.704 52.712 190.914H0V145.383H60.245C65.1428 145.173 69.9287 143.852 74.24 141.518L189.294 73.288C193.605 70.955 198.391 69.6336 203.288 69.424H220.014V69.425ZM248.466 0C252.611 0 256 3.389 256 7.375V37.485H195.755C190.861 37.6879 186.076 38.997 181.76 41.314L66.706 108.983C63.171 111.092 56.844 112.823 52.712 112.823H0V67.657H52.712C56.856 67.657 63.171 69.388 66.706 71.497L79.36 78.946C82.895 81.054 88.771 81.054 92.306 78.946L108.726 69.315C112.262 67.279 112.262 63.829 108.726 61.708L74.24 41.472C69.9206 39.1514 65.132 37.8386 60.233 37.632H0V7.522C0.00948841 5.52789 0.806674 3.61833 2.21786 2.20939C3.62905 0.80045 5.53988 0.00630969 7.534 0L248.466 0V0Z" fill="#BDBF09"/>
</g>
<defs>
<clipPath id="clip0_43_35">
<rect width="256" height="256" fill="white"/>
</clipPath>
</defs>
</svg>
