<svg width="21" height="24" viewBox="0 0 21 24" fill="none" xmlns="http://www.w3.org/2000/svg">
<g clip-path="url(#clip0_43_37)">
<path d="M10.639 24H10.636C10.297 24 9.98002 23.909 9.70802 23.749L9.71702 23.754L6.78002 22.017C6.34202 21.771 6.55602 21.685 6.70002 21.634C7.17527 21.4867 7.62964 21.279 8.05202 21.016L8.02802 21.03C8.06302 21.014 8.10153 21.0073 8.13987 21.0105C8.17821 21.0136 8.2151 21.0265 8.24702 21.048L8.24602 21.047L10.502 22.386C10.5442 22.4086 10.5913 22.4204 10.6392 22.4202C10.687 22.42 10.734 22.4079 10.776 22.385L10.774 22.386L19.568 17.309C19.6088 17.2841 19.6426 17.2491 19.666 17.2075C19.6895 17.1658 19.7019 17.1188 19.702 17.071V6.92201C19.7016 6.87387 19.6889 6.82664 19.6651 6.78481C19.6413 6.74297 19.6072 6.70793 19.566 6.68301L19.565 6.68201L10.774 1.61001C10.7324 1.58677 10.6855 1.57465 10.6379 1.57482C10.5902 1.575 10.5434 1.58746 10.502 1.61101L10.503 1.61001L1.71402 6.68301C1.67207 6.70757 1.63721 6.7426 1.61285 6.78466C1.58849 6.82673 1.57545 6.8744 1.57502 6.92301V17.072C1.57502 17.173 1.63002 17.26 1.71202 17.306L1.71302 17.307L4.12302 18.699C5.43002 19.353 6.23002 18.583 6.23002 17.81V7.78801C6.23002 7.64801 6.34402 7.53401 6.48402 7.53401H7.60302C7.74302 7.53401 7.85702 7.64701 7.85702 7.78801V17.81C7.85702 19.555 6.90702 20.556 5.25302 20.556L5.18702 20.557C4.48904 20.5581 3.80463 20.3642 3.21102 19.997L0.921023 18.679C0.640472 18.5154 0.407707 18.2811 0.245932 17.9995C0.0841577 17.7179 -0.000974221 17.3988 -0.000976562 17.074V6.92301C2.34375e-05 6.24301 0.367023 5.65001 0.913023 5.32801L0.922023 5.32301L9.71702 0.241007C10.0019 0.0848084 10.3218 0.00334404 10.6467 0.00421839C10.9716 0.00509274 11.291 0.0882773 11.575 0.246007L11.565 0.241007L20.359 5.32301C20.914 5.65001 21.28 6.24301 21.282 6.92301V17.073C21.2817 17.3962 21.1971 17.7137 21.0366 17.9943C20.8762 18.2749 20.6454 18.5088 20.367 18.673L20.358 18.678L11.566 23.756C11.286 23.9184 10.9677 24.0033 10.644 24.002H10.637L10.639 24Z" fill="#BDBF09"/>
<path d="M13.356 17.009C9.50805 17.009 8.70105 15.243 8.70105 13.76V13.759C8.70105 13.619 8.81405 13.506 8.95405 13.506H10.094C10.221 13.506 10.326 13.599 10.346 13.72V13.721C10.517 14.879 11.029 15.463 13.356 15.463C15.209 15.463 15.996 15.044 15.996 14.061C15.996 13.494 15.773 13.074 12.894 12.792C10.488 12.552 9.00005 12.022 9.00005 10.097C9.00005 8.32301 10.496 7.26401 13 7.26401C15.818 7.26401 17.2121 8.24201 17.3881 10.34L17.389 10.362C17.389 10.4294 17.3623 10.494 17.3147 10.5416C17.267 10.5892 17.2024 10.616 17.135 10.616H16.0021C15.9447 10.6158 15.8891 10.5961 15.8444 10.5601C15.7997 10.5241 15.7685 10.474 15.756 10.418V10.416C15.482 9.19801 14.816 8.80901 13.01 8.80901C10.987 8.80901 10.752 9.51401 10.752 10.041C10.752 10.681 11.03 10.867 13.761 11.228C16.463 11.586 17.747 12.091 17.747 13.99C17.743 15.909 16.146 17.007 13.359 17.007L13.356 17.009Z" fill="#BDBF09"/>
</g>
<defs>
<clipPath id="clip0_43_37">
<rect width="21" height="24" fill="white"/>
</clipPath>
</defs>
</svg>
