<svg width="512" height="512" viewBox="0 0 512 512" fill="none" xmlns="http://www.w3.org/2000/svg">
<g clip-path="url(#clip0_43_31)">
<path d="M322.384 145.576L390.933 215.86L373.579 247.53L254.269 396.776L134.96 251.002L117.606 215.86L186.155 145.576H322.385H322.384ZM300.275 36.01L274.6 69.955C398.01 82.03 472.097 207.912 433.042 318.339L452.917 357.869L492.412 354.879C557.346 200.611 454.312 17.934 279.68 1.75501L300.275 36.01ZM17.5861 348.692C-48.537 180.316 80.1581 -5.43299 263.924 0.755005L284.62 35.178L258.996 69.054C124.323 66.643 31.098 205.172 83.364 328.798L40.5941 317.577L17.5861 348.692V348.692ZM486.294 368.367L445.221 371.475L426.553 334.348C372.444 459.231 175.965 496.529 90.645 344.135L45.806 332.371L23.5061 362.531C128.011 576.453 405.08 543.151 486.294 368.367Z" fill="#BDBF09"/>
</g>
<defs>
<clipPath id="clip0_43_31">
<rect width="512" height="512" fill="white"/>
</clipPath>
</defs>
</svg>
