<svg width="32" height="32" viewBox="0 0 32 32" fill="none" xmlns="http://www.w3.org/2000/svg">
<path d="M26.875 0.108656C30.918 0.811656 32.068 3.57266 31.979 6.46866L32 6.42566L30.183 30.2807L6.542 31.9007C4.579 31.8167 0.198 31.6397 0.001 25.5207L2.194 21.5207L5.954 30.3017L6.626 31.8627L10.365 19.6707L10.324 19.6817L10.345 19.6387L22.684 23.5827L20.824 16.3377L19.507 11.1387L31.262 10.3787L30.445 9.70166L22.002 2.81666L26.882 0.0976562L26.875 0.108656ZM0 25.4527V25.4837V25.4477V25.4527ZM6.839 6.76466C11.588 2.05166 17.714 -0.730344 20.068 1.64466C22.416 4.01566 19.927 9.78566 15.172 14.4887C10.421 19.2017 4.369 22.1357 2.021 19.7647C-0.334 17.4007 2.078 11.4777 6.838 6.76466H6.839Z" fill="#BDBF09"/>
</svg>
