<svg width="24" height="24" viewBox="0 0 24 24" fill="none" xmlns="http://www.w3.org/2000/svg">
<path d="M18.5 9.50999C17.7501 9.2517 17.0881 8.78728 16.59 8.16999C16.041 7.48222 15.3421 6.92913 14.5465 6.55301C13.7509 6.1769 12.8799 5.98773 12 5.99999C10.8164 5.91616 9.64458 6.28123 8.71801 7.0225C7.79143 7.76376 7.17804 8.82682 7 9.99999C7.35067 9.41323 7.87845 8.95286 8.50739 8.68511C9.13633 8.41736 9.834 8.35605 10.5 8.50999C11.2487 8.7758 11.9096 9.24292 12.41 9.85999C12.962 10.5423 13.6623 11.0896 14.4577 11.4605C15.2531 11.8313 16.1226 12.0158 17 12C18.1836 12.0838 19.3554 11.7187 20.282 10.9775C21.2086 10.2362 21.822 9.17315 22 7.99999C21.6557 8.59376 21.1296 9.06109 20.4994 9.33299C19.8691 9.60489 19.1682 9.66694 18.5 9.50999ZM5.5 14.49C6.24995 14.7483 6.91192 15.2127 7.41 15.83C7.95895 16.5178 8.65794 17.0709 9.4535 17.447C10.2491 17.8231 11.1201 18.0122 12 18C13.1836 18.0838 14.3554 17.7187 15.282 16.9775C16.2086 16.2362 16.822 15.1732 17 14C16.6493 14.5867 16.1215 15.0471 15.4926 15.3149C14.8637 15.5826 14.166 15.6439 13.5 15.49C12.7513 15.2242 12.0904 14.7571 11.59 14.14C11.0366 13.4594 10.336 12.9132 9.54091 12.5426C8.74587 12.1719 7.8771 11.9864 7 12C5.81637 11.9162 4.64458 12.2812 3.71801 13.0225C2.79143 13.7638 2.17804 14.8268 2 16C2.34431 15.4062 2.87041 14.9389 3.50063 14.667C4.13086 14.3951 4.83181 14.333 5.5 14.49Z" fill="#BDBF09"/>
</svg>
